<?xml version="1.0" encoding="iso-8859-1"?>
<!-- Generator: Adobe Illustrator 19.0.0, SVG Export Plug-In . SVG Version: 6.00 Build 0)  -->
<svg version="1.1" id="Layer_1" xmlns="http://www.w3.org/2000/svg" xmlns:xlink="http://www.w3.org/1999/xlink" x="0px" y="0px"
	 viewBox="0 0 512.014 512.014" style="enable-background:new 0 0 512.014 512.014;" xml:space="preserve">
<g>
	<g>
		<path d="M256.014,64.007c-141.163,0-256,86.144-256,192c0,46.72,22.187,91.008,62.805,125.973L4.003,429.02
			c-3.541,2.837-4.907,7.595-3.392,11.861c1.515,4.267,5.547,7.125,10.069,7.125h245.333c141.163,0,256-86.144,256-192
			S397.176,64.007,256.014,64.007z M256.014,426.673H41.102l45.376-36.309c2.581-2.048,4.053-5.163,4.011-8.448
			s-1.579-6.379-4.181-8.363c-41.899-32-64.96-73.728-64.96-117.547c0-94.101,105.28-170.667,234.667-170.667
			S490.68,161.905,490.68,256.007S385.4,426.673,256.014,426.673z"/>
	</g>
</g>
<g>
</g>
<g>
</g>
<g>
</g>
<g>
</g>
<g>
</g>
<g>
</g>
<g>
</g>
<g>
</g>
<g>
</g>
<g>
</g>
<g>
</g>
<g>
</g>
<g>
</g>
<g>
</g>
<g>
</g>
</svg>
