<svg height="512pt" viewBox="0 -106 512 512" width="512pt" xmlns="http://www.w3.org/2000/svg"><path d="m402 0h-292c-44.140625 0-83.867188 26.25-101.210938 66.871094-2.167968 5.082031.191407 10.957031 5.269532 13.125 5.078125 2.167968 10.957031-.191406 13.125-5.269532 14.191406-33.246093 46.699218-54.726562 82.816406-54.726562h292c49.625 0 90 40.375 90 90s-40.375 90-90 90h-187c-2.960938 0-5.769531 1.3125-7.667969 3.582031-23.035156 27.527344-52.699219 49.296875-85.890625 63.054688 10.25-16.71875 17.246094-35.277344 20.617188-54.949219.496094-2.902344-.3125-5.878906-2.214844-8.132812-1.898438-2.253907-4.695312-3.554688-7.644531-3.554688h-22.199219c-36.117188 0-68.625-21.480469-82.816406-54.726562-2.167969-5.082032-8.046875-7.4375-13.125-5.269532-5.078125 2.167969-7.4375 8.042969-5.269532 13.121094 17.34375 40.625 57.070313 66.863281 101.210938 66.863281h9.8125c-10.097656 38.457031-36.367188 62.273438-36.882812 62.941407-3.359376 3.355468-3.894532 8.609374-1.277344 12.574218 2.617187 3.972656 7.65625 5.539063 12.0625 3.78125 18.527344-9.265625 75.464844-21.359375 125.894531-79.285156h182.390625c60.652344 0 110-49.347656 110-110s-49.347656-110-110-110zm0 0"/><path d="m20 110c0 5.523438-4.476562 10-10 10s-10-4.476562-10-10 4.476562-10 10-10 10 4.476562 10 10zm0 0"/></svg>